<?xml version="1.0" encoding="UTF-8"?>
<svg xmlns="http://www.w3.org/2000/svg" xmlns:xlink="http://www.w3.org/1999/xlink" width="145px" height="68px" viewBox="0 0 144 68" version="1.1">
<g id="surface1">
<path style=" stroke:none;fill-rule:nonzero;fill:rgb(88.627451%,91.372549%,95.294118%);fill-opacity:1;" d="M 38.914062 20.683594 L 105.082031 20.683594 C 106.132812 20.683594 107.140625 21.101562 107.882812 21.847656 C 108.625 22.597656 109.042969 23.609375 109.042969 24.664062 L 109.042969 32.628906 C 109.042969 33.683594 108.625 34.695312 107.882812 35.445312 C 107.140625 36.191406 106.132812 36.609375 105.082031 36.609375 L 38.914062 36.609375 C 36.726562 36.609375 34.953125 34.828125 34.953125 32.628906 L 34.953125 24.664062 C 34.953125 22.464844 36.726562 20.683594 38.914062 20.683594 "/>
<path style=" stroke:none;fill-rule:nonzero;fill:rgb(18.039216%,36.470588%,63.137255%);fill-opacity:1;" d="M 45.152344 29.410156 C 45.152344 29.238281 45.085938 29.070312 44.957031 28.90625 C 44.832031 28.738281 44.605469 28.644531 44.277344 28.625 C 44.0625 28.882812 43.804688 29.011719 43.503906 29.011719 C 43.242188 29.011719 43.023438 28.917969 42.839844 28.738281 C 42.660156 28.554688 42.570312 28.332031 42.570312 28.0625 C 42.570312 27.796875 42.660156 27.570312 42.839844 27.390625 C 43.023438 27.203125 43.242188 27.113281 43.503906 27.113281 C 43.636719 27.113281 43.773438 27.148438 43.90625 27.226562 C 44.039062 27.300781 44.15625 27.394531 44.265625 27.503906 C 44.433594 27.492188 44.5625 27.464844 44.652344 27.421875 C 44.746094 27.375 44.808594 27.320312 44.851562 27.257812 C 44.894531 27.191406 44.917969 27.117188 44.925781 27.035156 C 44.933594 26.949219 44.9375 26.863281 44.9375 26.777344 L 44.9375 25.621094 C 44.9375 25.429688 44.878906 25.257812 44.761719 25.097656 C 44.644531 24.9375 44.445312 24.855469 44.164062 24.855469 L 41.78125 24.855469 L 41.769531 32.414062 C 41.769531 32.566406 41.699219 32.683594 41.558594 32.765625 C 41.417969 32.84375 41.265625 32.882812 41.097656 32.882812 C 40.648438 32.882812 40.425781 32.699219 40.425781 32.332031 L 40.425781 24.386719 C 40.425781 24.113281 40.496094 23.925781 40.632812 23.835938 C 40.777344 23.746094 40.945312 23.699219 41.144531 23.699219 L 44.449219 23.699219 C 44.644531 23.699219 44.855469 23.738281 45.078125 23.8125 C 45.304688 23.890625 45.515625 23.992188 45.714844 24.125 L 45.699219 24.125 C 45.894531 24.269531 46.042969 24.460938 46.136719 24.695312 C 46.230469 24.933594 46.28125 25.210938 46.28125 25.523438 L 46.28125 26.816406 C 46.28125 27.121094 46.214844 27.367188 46.085938 27.5625 C 45.957031 27.757812 45.824219 27.910156 45.679688 28.027344 C 45.777344 28.089844 45.871094 28.152344 45.964844 28.21875 C 46.054688 28.28125 46.128906 28.351562 46.191406 28.429688 C 46.289062 28.535156 46.367188 28.660156 46.425781 28.804688 C 46.480469 28.953125 46.511719 29.125 46.511719 29.320312 L 46.511719 30.960938 C 46.511719 31.585938 46.269531 32.046875 45.78125 32.34375 C 45.539062 32.496094 45.304688 32.613281 45.089844 32.691406 C 44.875 32.769531 44.660156 32.804688 44.449219 32.804688 L 42.757812 32.804688 C 42.632812 32.804688 42.53125 32.753906 42.460938 32.644531 C 42.386719 32.535156 42.351562 32.394531 42.351562 32.21875 C 42.351562 31.839844 42.511719 31.648438 42.832031 31.648438 L 44.390625 31.648438 C 44.671875 31.648438 44.867188 31.570312 44.980469 31.40625 C 45.09375 31.246094 45.152344 31.066406 45.152344 30.871094 Z M 45.152344 29.410156 "/>
<path style=" stroke:none;fill-rule:nonzero;fill:rgb(18.039216%,36.470588%,63.137255%);fill-opacity:1;" d="M 54.359375 30.960938 C 54.359375 31.578125 54.152344 32.039062 53.742188 32.34375 C 53.546875 32.492188 53.34375 32.605469 53.136719 32.6875 C 52.929688 32.765625 52.722656 32.804688 52.523438 32.804688 L 50.042969 32.804688 C 49.84375 32.804688 49.640625 32.765625 49.433594 32.6875 C 49.226562 32.605469 49.023438 32.492188 48.824219 32.34375 C 48.625 32.195312 48.472656 32.007812 48.367188 31.78125 C 48.261719 31.550781 48.210938 31.28125 48.210938 30.960938 L 48.210938 24.191406 C 48.210938 23.824219 48.433594 23.640625 48.882812 23.640625 C 49.335938 23.640625 49.566406 23.824219 49.566406 24.191406 L 49.566406 30.871094 C 49.566406 31.066406 49.621094 31.246094 49.734375 31.40625 C 49.847656 31.570312 50.046875 31.648438 50.328125 31.648438 L 52.242188 31.648438 C 52.523438 31.648438 52.71875 31.570312 52.832031 31.40625 C 52.949219 31.246094 53.003906 31.066406 53.003906 30.871094 L 53.003906 24.191406 C 53.003906 23.824219 53.226562 23.640625 53.675781 23.640625 C 54.132812 23.640625 54.359375 23.824219 54.359375 24.191406 Z M 54.359375 30.960938 "/>
<path style=" stroke:none;fill-rule:nonzero;fill:rgb(18.039216%,36.470588%,63.137255%);fill-opacity:1;" d="M 60.421875 27.558594 C 60.621094 27.558594 60.824219 27.601562 61.035156 27.683594 C 61.25 27.765625 61.453125 27.878906 61.652344 28.019531 L 61.640625 28.019531 C 61.839844 28.15625 61.988281 28.339844 62.09375 28.578125 C 62.203125 28.816406 62.257812 29.085938 62.257812 29.390625 L 62.257812 30.960938 C 62.257812 31.578125 62.050781 32.039062 61.640625 32.34375 C 61.445312 32.492188 61.242188 32.605469 61.03125 32.6875 C 60.824219 32.765625 60.621094 32.804688 60.421875 32.804688 L 57.941406 32.804688 C 57.742188 32.804688 57.539062 32.765625 57.328125 32.6875 C 57.121094 32.605469 56.917969 32.492188 56.722656 32.34375 C 56.308594 32.039062 56.105469 31.578125 56.105469 30.960938 L 56.105469 30.203125 C 56.105469 29.847656 56.328125 29.667969 56.777344 29.667969 C 57.230469 29.667969 57.460938 29.847656 57.460938 30.203125 L 57.460938 30.871094 C 57.460938 31.066406 57.515625 31.246094 57.632812 31.40625 C 57.746094 31.570312 57.945312 31.648438 58.226562 31.648438 L 60.136719 31.648438 C 60.417969 31.648438 60.617188 31.570312 60.730469 31.40625 C 60.847656 31.246094 60.902344 31.066406 60.902344 30.871094 L 60.902344 29.480469 C 60.902344 29.292969 60.847656 29.117188 60.730469 28.953125 C 60.617188 28.785156 60.417969 28.703125 60.136719 28.703125 L 57.941406 28.703125 C 57.542969 28.703125 57.136719 28.558594 56.722656 28.269531 C 56.308594 27.949219 56.105469 27.484375 56.105469 26.882812 L 56.105469 25.523438 C 56.105469 25.214844 56.15625 24.945312 56.261719 24.714844 C 56.371094 24.480469 56.523438 24.292969 56.722656 24.144531 L 56.707031 24.144531 C 56.90625 24.015625 57.113281 23.910156 57.324219 23.828125 C 57.539062 23.742188 57.742188 23.699219 57.941406 23.699219 L 60.421875 23.699219 C 60.621094 23.699219 60.824219 23.742188 61.035156 23.828125 C 61.25 23.910156 61.453125 24.015625 61.652344 24.144531 L 61.640625 24.144531 C 61.839844 24.292969 61.988281 24.480469 62.09375 24.714844 C 62.203125 24.945312 62.257812 25.214844 62.257812 25.523438 L 62.257812 26.195312 C 62.257812 26.554688 62.03125 26.734375 61.574219 26.734375 C 61.128906 26.734375 60.902344 26.554688 60.902344 26.195312 L 60.902344 25.621094 C 60.902344 25.429688 60.847656 25.257812 60.730469 25.097656 C 60.617188 24.9375 60.417969 24.855469 60.136719 24.855469 L 58.226562 24.855469 C 57.945312 24.855469 57.746094 24.9375 57.632812 25.097656 C 57.515625 25.257812 57.460938 25.429688 57.460938 25.621094 L 57.460938 26.792969 C 57.460938 26.992188 57.515625 27.167969 57.632812 27.324219 C 57.746094 27.480469 57.945312 27.558594 58.226562 27.558594 Z M 60.421875 27.558594 "/>
<path style=" stroke:none;fill-rule:nonzero;fill:rgb(18.039216%,36.470588%,63.137255%);fill-opacity:1;" d="M 70.1875 30.960938 C 70.1875 31.578125 69.980469 32.039062 69.570312 32.34375 C 69.375 32.492188 69.171875 32.605469 68.964844 32.6875 C 68.753906 32.765625 68.550781 32.804688 68.351562 32.804688 L 65.867188 32.804688 C 65.671875 32.804688 65.46875 32.765625 65.261719 32.6875 C 65.054688 32.605469 64.847656 32.492188 64.648438 32.34375 C 64.453125 32.195312 64.300781 32.007812 64.195312 31.78125 C 64.089844 31.550781 64.039062 31.28125 64.039062 30.960938 L 64.039062 25.523438 C 64.039062 25.214844 64.089844 24.945312 64.195312 24.714844 C 64.300781 24.480469 64.453125 24.292969 64.648438 24.144531 L 64.640625 24.144531 C 64.835938 24.015625 65.039062 23.910156 65.253906 23.828125 C 65.464844 23.742188 65.671875 23.699219 65.867188 23.699219 L 68.351562 23.699219 C 68.550781 23.699219 68.757812 23.742188 68.96875 23.828125 C 69.183594 23.910156 69.386719 24.015625 69.585938 24.144531 L 69.570312 24.144531 C 69.769531 24.292969 69.921875 24.480469 70.027344 24.714844 C 70.132812 24.945312 70.1875 25.214844 70.1875 25.523438 L 70.1875 26.308594 C 70.1875 26.675781 69.957031 26.859375 69.503906 26.859375 C 69.054688 26.859375 68.832031 26.675781 68.832031 26.308594 L 68.832031 25.621094 C 68.832031 25.429688 68.773438 25.257812 68.660156 25.097656 C 68.546875 24.9375 68.351562 24.855469 68.070312 24.855469 L 66.152344 24.855469 C 65.875 24.855469 65.675781 24.9375 65.558594 25.097656 C 65.449219 25.257812 65.394531 25.429688 65.394531 25.621094 L 65.394531 30.871094 C 65.394531 31.066406 65.449219 31.246094 65.558594 31.40625 C 65.675781 31.570312 65.875 31.648438 66.152344 31.648438 L 68.070312 31.648438 C 68.351562 31.648438 68.546875 31.570312 68.660156 31.40625 C 68.773438 31.246094 68.832031 31.066406 68.832031 30.871094 L 68.832031 30.203125 C 68.832031 29.847656 69.054688 29.667969 69.503906 29.667969 C 69.957031 29.667969 70.1875 29.847656 70.1875 30.203125 Z M 70.1875 30.960938 "/>
<path style=" stroke:none;fill-rule:nonzero;fill:rgb(18.039216%,36.470588%,63.137255%);fill-opacity:1;" d="M 74.835938 24.820312 L 72.34375 32.519531 L 72.34375 32.503906 C 72.296875 32.621094 72.234375 32.714844 72.152344 32.789062 C 72.074219 32.859375 71.976562 32.898438 71.863281 32.898438 C 71.800781 32.898438 71.742188 32.890625 71.6875 32.878906 C 71.628906 32.867188 71.570312 32.851562 71.511719 32.835938 L 71.523438 32.835938 C 71.089844 32.699219 70.929688 32.457031 71.042969 32.105469 L 73.640625 24.167969 C 73.679688 24.046875 73.746094 23.945312 73.839844 23.859375 C 73.9375 23.773438 74.046875 23.726562 74.175781 23.707031 C 74.304688 23.6875 74.429688 23.671875 74.550781 23.660156 C 74.675781 23.648438 74.769531 23.640625 74.835938 23.640625 C 74.90625 23.640625 75 23.648438 75.121094 23.660156 C 75.242188 23.671875 75.367188 23.683594 75.5 23.699219 C 75.601562 23.714844 75.707031 23.773438 75.8125 23.871094 C 75.914062 23.96875 75.992188 24.070312 76.046875 24.167969 C 76.472656 25.480469 76.902344 26.804688 77.339844 28.136719 C 77.773438 29.46875 78.207031 30.792969 78.628906 32.105469 C 78.738281 32.457031 78.578125 32.699219 78.152344 32.835938 C 78.09375 32.851562 78.035156 32.867188 77.984375 32.878906 C 77.9375 32.890625 77.882812 32.898438 77.824219 32.898438 C 77.714844 32.898438 77.621094 32.859375 77.53125 32.789062 C 77.445312 32.714844 77.382812 32.621094 77.34375 32.503906 L 77.34375 32.519531 Z M 75.691406 30.046875 C 75.691406 30.289062 75.605469 30.496094 75.433594 30.667969 C 75.265625 30.839844 75.058594 30.925781 74.8125 30.925781 C 74.570312 30.925781 74.367188 30.839844 74.199219 30.667969 C 74.03125 30.496094 73.949219 30.289062 73.949219 30.046875 C 73.949219 29.800781 74.03125 29.589844 74.199219 29.421875 C 74.367188 29.246094 74.570312 29.160156 74.8125 29.160156 C 75.058594 29.160156 75.265625 29.246094 75.433594 29.421875 C 75.605469 29.589844 75.691406 29.800781 75.691406 30.046875 Z M 75.691406 30.046875 "/>
<path style=" stroke:none;fill-rule:nonzero;fill:rgb(18.039216%,36.470588%,63.137255%);fill-opacity:1;" d="M 86.640625 23.640625 C 86.886719 23.640625 87.152344 23.699219 87.4375 23.8125 C 87.703125 23.921875 87.835938 24.121094 87.835938 24.417969 L 87.835938 32.308594 C 87.835938 32.675781 87.613281 32.859375 87.167969 32.859375 C 86.71875 32.859375 86.496094 32.675781 86.496094 32.308594 L 86.496094 26.421875 L 86.164062 26.390625 L 85.707031 27.875 L 84.339844 32.460938 C 84.257812 32.726562 84.054688 32.855469 83.726562 32.851562 C 83.582031 32.84375 83.457031 32.804688 83.347656 32.738281 C 83.238281 32.667969 83.167969 32.566406 83.132812 32.4375 L 82.3125 29.765625 C 82.148438 29.242188 81.980469 28.707031 81.808594 28.160156 C 81.644531 27.613281 81.460938 27.007812 81.265625 26.347656 L 80.9375 26.390625 L 80.9375 32.308594 C 80.9375 32.675781 80.710938 32.859375 80.261719 32.859375 C 79.8125 32.859375 79.589844 32.675781 79.589844 32.308594 L 79.589844 24.417969 C 79.589844 24.132812 79.722656 23.929688 79.988281 23.8125 C 80.269531 23.699219 80.539062 23.644531 80.800781 23.652344 C 80.910156 23.652344 81.027344 23.671875 81.148438 23.699219 C 81.273438 23.730469 81.386719 23.773438 81.492188 23.832031 C 81.597656 23.890625 81.691406 23.960938 81.773438 24.050781 C 81.859375 24.136719 81.921875 24.234375 81.96875 24.351562 L 83.757812 30.476562 C 83.886719 30.027344 84.023438 29.542969 84.167969 29.015625 C 84.3125 28.488281 84.460938 27.953125 84.609375 27.410156 C 84.765625 26.867188 84.914062 26.332031 85.0625 25.800781 C 85.210938 25.269531 85.351562 24.773438 85.480469 24.320312 C 85.527344 24.210938 85.589844 24.113281 85.671875 24.03125 C 85.753906 23.949219 85.851562 23.875 85.957031 23.816406 C 86.066406 23.761719 86.175781 23.714844 86.292969 23.6875 C 86.410156 23.65625 86.527344 23.640625 86.640625 23.640625 Z M 86.640625 23.640625 "/>
<path style=" stroke:none;fill-rule:nonzero;fill:rgb(18.039216%,36.470588%,63.137255%);fill-opacity:1;" d="M 93.75 23.699219 C 93.949219 23.699219 94.15625 23.742188 94.367188 23.828125 C 94.582031 23.910156 94.785156 24.015625 94.984375 24.144531 L 94.96875 24.144531 C 95.167969 24.292969 95.320312 24.480469 95.429688 24.714844 C 95.53125 24.945312 95.585938 25.214844 95.585938 25.523438 L 95.585938 30.960938 C 95.585938 31.578125 95.378906 32.039062 94.96875 32.34375 C 94.773438 32.492188 94.570312 32.605469 94.363281 32.6875 C 94.15625 32.765625 93.949219 32.804688 93.75 32.804688 L 91.269531 32.804688 C 91.070312 32.804688 90.867188 32.765625 90.660156 32.6875 C 90.453125 32.605469 90.25 32.492188 90.046875 32.34375 C 89.851562 32.195312 89.699219 32.007812 89.59375 31.78125 C 89.488281 31.550781 89.4375 31.28125 89.4375 30.960938 L 89.4375 25.523438 C 89.4375 25.214844 89.488281 24.945312 89.59375 24.714844 C 89.699219 24.480469 89.851562 24.292969 90.046875 24.144531 L 90.039062 24.144531 C 90.234375 24.015625 90.441406 23.910156 90.652344 23.828125 C 90.867188 23.742188 91.070312 23.699219 91.269531 23.699219 Z M 93.46875 31.648438 C 93.75 31.648438 93.945312 31.570312 94.058594 31.40625 C 94.171875 31.246094 94.230469 31.066406 94.230469 30.871094 L 94.230469 25.621094 C 94.230469 25.429688 94.171875 25.257812 94.058594 25.097656 C 93.945312 24.9375 93.75 24.855469 93.46875 24.855469 L 91.554688 24.855469 C 91.273438 24.855469 91.074219 24.9375 90.960938 25.097656 C 90.847656 25.257812 90.792969 25.429688 90.792969 25.621094 L 90.792969 30.871094 C 90.792969 31.066406 90.847656 31.246094 90.960938 31.40625 C 91.074219 31.570312 91.273438 31.648438 91.554688 31.648438 Z M 93.46875 31.648438 "/>
<path style=" stroke:none;fill-rule:nonzero;fill:rgb(18.039216%,36.470588%,63.137255%);fill-opacity:1;" d="M 102.355469 24.191406 C 102.355469 23.824219 102.578125 23.640625 103.027344 23.640625 C 103.472656 23.640625 103.699219 23.824219 103.699219 24.191406 L 103.699219 32.09375 C 103.699219 32.363281 103.558594 32.558594 103.277344 32.679688 L 103.289062 32.679688 C 103.167969 32.730469 103.039062 32.769531 102.902344 32.800781 C 102.765625 32.832031 102.632812 32.851562 102.507812 32.851562 C 102.40625 32.851562 102.300781 32.839844 102.195312 32.820312 C 102.085938 32.800781 101.988281 32.769531 101.894531 32.726562 C 101.800781 32.6875 101.714844 32.628906 101.632812 32.558594 C 101.550781 32.488281 101.492188 32.394531 101.445312 32.285156 L 98.972656 26.089844 L 98.664062 26.128906 L 98.664062 32.308594 C 98.664062 32.675781 98.433594 32.859375 97.980469 32.859375 C 97.53125 32.859375 97.308594 32.675781 97.308594 32.308594 L 97.308594 24.417969 C 97.308594 24.105469 97.445312 23.898438 97.722656 23.789062 C 97.972656 23.691406 98.238281 23.640625 98.519531 23.640625 C 98.714844 23.640625 98.914062 23.679688 99.113281 23.761719 C 99.3125 23.84375 99.46875 23.992188 99.574219 24.214844 L 102.035156 30.421875 L 102.355469 30.386719 Z M 102.355469 24.191406 "/>
<path style=" stroke:none;fill-rule:nonzero;fill:rgb(91.372549%,94.901961%,97.647059%);fill-opacity:1;" d="M 23.46875 36.695312 L 120.480469 36.695312 C 121.140625 36.695312 121.773438 36.960938 122.238281 37.429688 C 122.707031 37.898438 122.96875 38.535156 122.96875 39.195312 L 122.96875 44.199219 C 122.96875 44.859375 122.707031 45.496094 122.238281 45.964844 C 121.773438 46.4375 121.140625 46.699219 120.480469 46.699219 L 23.46875 46.699219 C 22.097656 46.699219 20.984375 45.578125 20.984375 44.199219 L 20.984375 39.195312 C 20.984375 37.816406 22.097656 36.695312 23.46875 36.695312 "/>
<path style=" stroke:none;fill-rule:nonzero;fill:rgb(29.019608%,58.431373%,81.176471%);fill-opacity:1;" d="M 27.011719 42.148438 C 26.929688 42.148438 26.871094 42.117188 26.824219 42.050781 C 26.777344 41.988281 26.757812 41.902344 26.757812 41.796875 C 26.757812 41.558594 26.855469 41.4375 27.050781 41.4375 L 27.789062 41.4375 C 27.960938 41.4375 28.085938 41.390625 28.15625 41.289062 C 28.230469 41.195312 28.265625 41.085938 28.265625 40.96875 L 28.265625 39.820312 C 28.265625 39.703125 28.230469 39.597656 28.15625 39.5 C 28.085938 39.398438 27.960938 39.351562 27.789062 39.351562 L 26.324219 39.351562 L 26.324219 43.921875 C 26.324219 44.148438 26.1875 44.261719 25.910156 44.261719 C 25.640625 44.261719 25.503906 44.148438 25.503906 43.921875 L 25.503906 39.0625 C 25.503906 38.898438 25.546875 38.785156 25.628906 38.730469 C 25.710938 38.671875 25.816406 38.644531 25.9375 38.644531 L 27.972656 38.644531 C 28.085938 38.644531 28.207031 38.671875 28.339844 38.722656 C 28.46875 38.773438 28.597656 38.839844 28.71875 38.917969 L 28.710938 38.917969 C 28.828125 39.007812 28.921875 39.121094 28.984375 39.265625 C 29.050781 39.40625 29.085938 39.570312 29.085938 39.753906 L 29.085938 41.027344 C 29.085938 41.402344 28.960938 41.6875 28.710938 41.875 C 28.589844 41.960938 28.464844 42.03125 28.339844 42.078125 C 28.214844 42.125 28.089844 42.148438 27.972656 42.148438 Z M 27.011719 42.148438 "/>
<path style=" stroke:none;fill-rule:nonzero;fill:rgb(29.019608%,58.431373%,81.176471%);fill-opacity:1;" d="M 35.113281 38.644531 C 35.234375 38.644531 35.359375 38.671875 35.488281 38.722656 C 35.621094 38.773438 35.75 38.839844 35.871094 38.917969 L 35.859375 38.917969 C 35.980469 39.007812 36.074219 39.121094 36.136719 39.265625 C 36.203125 39.40625 36.238281 39.570312 36.238281 39.753906 L 36.238281 43.085938 C 36.238281 43.460938 36.113281 43.746094 35.859375 43.933594 C 35.738281 44.023438 35.613281 44.089844 35.484375 44.140625 C 35.359375 44.191406 35.234375 44.214844 35.113281 44.214844 L 33.59375 44.214844 C 33.472656 44.214844 33.351562 44.191406 33.222656 44.140625 C 33.097656 44.089844 32.972656 44.023438 32.851562 43.933594 C 32.730469 43.839844 32.636719 43.722656 32.570312 43.585938 C 32.507812 43.449219 32.476562 43.285156 32.476562 43.085938 L 32.476562 39.753906 C 32.476562 39.570312 32.507812 39.40625 32.570312 39.265625 C 32.636719 39.121094 32.730469 39.007812 32.851562 38.917969 L 32.84375 38.917969 C 32.964844 38.839844 33.089844 38.773438 33.21875 38.722656 C 33.347656 38.671875 33.472656 38.644531 33.59375 38.644531 Z M 34.941406 43.503906 C 35.113281 43.503906 35.234375 43.457031 35.304688 43.359375 C 35.371094 43.261719 35.40625 43.152344 35.40625 43.03125 L 35.40625 39.820312 C 35.40625 39.703125 35.371094 39.597656 35.304688 39.5 C 35.234375 39.398438 35.113281 39.351562 34.941406 39.351562 L 33.773438 39.351562 C 33.601562 39.351562 33.480469 39.398438 33.410156 39.5 C 33.339844 39.597656 33.304688 39.703125 33.304688 39.820312 L 33.304688 43.03125 C 33.304688 43.152344 33.339844 43.261719 33.410156 43.359375 C 33.480469 43.457031 33.601562 43.503906 33.773438 43.503906 Z M 34.941406 43.503906 "/>
<path style=" stroke:none;fill-rule:nonzero;fill:rgb(29.019608%,58.431373%,81.176471%);fill-opacity:1;" d="M 42.574219 38.726562 C 42.644531 38.644531 42.722656 38.601562 42.8125 38.601562 C 42.90625 38.601562 43.007812 38.648438 43.109375 38.734375 C 43.160156 38.789062 43.203125 38.839844 43.238281 38.890625 C 43.273438 38.941406 43.292969 38.992188 43.292969 39.039062 C 43.292969 39.125 43.261719 39.199219 43.199219 39.257812 L 42.265625 40.351562 L 40.449219 42.503906 L 40.449219 43.910156 C 40.449219 44.136719 40.308594 44.246094 40.027344 44.246094 C 39.757812 44.246094 39.621094 44.136719 39.621094 43.910156 L 39.621094 38.945312 C 39.621094 38.71875 39.757812 38.609375 40.027344 38.609375 C 40.308594 38.609375 40.449219 38.71875 40.449219 38.945312 L 40.449219 41.234375 Z M 41.582031 42.054688 C 41.539062 41.988281 41.515625 41.910156 41.515625 41.820312 C 41.515625 41.675781 41.570312 41.5625 41.6875 41.480469 L 41.683594 41.480469 C 41.773438 41.417969 41.867188 41.382812 41.957031 41.382812 C 42.046875 41.382812 42.121094 41.433594 42.179688 41.535156 L 43.527344 43.515625 L 43.523438 43.503906 C 43.5625 43.570312 43.585938 43.640625 43.585938 43.714844 C 43.585938 43.835938 43.523438 43.945312 43.40625 44.039062 L 43.410156 44.039062 C 43.355469 44.070312 43.308594 44.097656 43.257812 44.113281 C 43.214844 44.132812 43.171875 44.140625 43.136719 44.140625 C 43.101562 44.140625 43.0625 44.128906 43.023438 44.101562 C 42.984375 44.074219 42.945312 44.039062 42.90625 43.996094 Z M 41.582031 42.054688 "/>
<path style=" stroke:none;fill-rule:nonzero;fill:rgb(29.019608%,58.431373%,81.176471%);fill-opacity:1;" d="M 46.941406 44.214844 C 46.773438 44.214844 46.65625 44.171875 46.597656 44.082031 C 46.535156 43.992188 46.507812 43.894531 46.507812 43.785156 L 46.507812 39.0625 C 46.507812 38.957031 46.535156 38.863281 46.597656 38.777344 C 46.65625 38.6875 46.773438 38.644531 46.941406 38.644531 L 49.371094 38.644531 C 49.542969 38.644531 49.632812 38.761719 49.640625 38.996094 C 49.652344 39.230469 49.5625 39.351562 49.371094 39.351562 L 47.328125 39.351562 L 47.328125 43.503906 L 49.492188 43.503906 C 49.664062 43.503906 49.753906 43.621094 49.761719 43.851562 C 49.769531 44.09375 49.679688 44.214844 49.492188 44.214844 Z M 49.113281 41.3125 C 49.113281 41.476562 49.054688 41.617188 48.941406 41.726562 C 48.824219 41.835938 48.6875 41.890625 48.527344 41.890625 C 48.367188 41.890625 48.230469 41.835938 48.121094 41.726562 C 48.007812 41.617188 47.953125 41.476562 47.953125 41.3125 C 47.953125 41.148438 48.007812 41.011719 48.121094 40.898438 C 48.230469 40.789062 48.367188 40.730469 48.527344 40.730469 C 48.6875 40.730469 48.824219 40.789062 48.941406 40.898438 C 49.054688 41.011719 49.113281 41.148438 49.113281 41.3125 Z M 49.113281 41.3125 "/>
<path style=" stroke:none;fill-rule:nonzero;fill:rgb(29.019608%,58.431373%,81.176471%);fill-opacity:1;" d="M 57.121094 38.609375 C 57.269531 38.609375 57.429688 38.644531 57.605469 38.710938 C 57.769531 38.78125 57.851562 38.902344 57.851562 39.085938 L 57.851562 43.910156 C 57.851562 44.136719 57.714844 44.246094 57.441406 44.246094 C 57.167969 44.246094 57.03125 44.136719 57.03125 43.910156 L 57.03125 40.3125 L 56.828125 40.289062 L 56.550781 41.199219 L 55.710938 44 C 55.660156 44.164062 55.535156 44.246094 55.335938 44.242188 C 55.246094 44.234375 55.171875 44.210938 55.105469 44.167969 C 55.039062 44.128906 54.996094 44.066406 54.972656 43.988281 L 54.46875 42.355469 C 54.371094 42.035156 54.269531 41.707031 54.167969 41.371094 C 54.0625 41.039062 53.949219 40.667969 53.832031 40.261719 L 53.625 40.289062 L 53.625 43.910156 C 53.625 44.136719 53.492188 44.246094 53.21875 44.246094 C 52.945312 44.246094 52.808594 44.136719 52.808594 43.910156 L 52.808594 39.085938 C 52.808594 38.90625 52.886719 38.78125 53.050781 38.710938 C 53.222656 38.644531 53.386719 38.609375 53.546875 38.617188 C 53.613281 38.617188 53.6875 38.625 53.757812 38.644531 C 53.832031 38.664062 53.902344 38.691406 53.964844 38.726562 C 54.03125 38.761719 54.089844 38.804688 54.144531 38.859375 C 54.195312 38.910156 54.234375 38.972656 54.261719 39.039062 L 55.359375 42.789062 C 55.4375 42.515625 55.519531 42.21875 55.605469 41.898438 C 55.695312 41.570312 55.785156 41.242188 55.878906 40.914062 C 55.972656 40.582031 56.066406 40.253906 56.15625 39.929688 C 56.246094 39.605469 56.332031 39.300781 56.410156 39.023438 C 56.4375 38.957031 56.476562 38.898438 56.527344 38.847656 C 56.578125 38.796875 56.636719 38.753906 56.699219 38.71875 C 56.765625 38.679688 56.835938 38.652344 56.90625 38.636719 C 56.980469 38.617188 57.050781 38.609375 57.121094 38.609375 Z M 57.121094 38.609375 "/>
<path style=" stroke:none;fill-rule:nonzero;fill:rgb(29.019608%,58.431373%,81.176471%);fill-opacity:1;" d="M 63.800781 38.644531 C 63.921875 38.644531 64.046875 38.671875 64.179688 38.722656 C 64.3125 38.773438 64.4375 38.839844 64.558594 38.917969 L 64.550781 38.917969 C 64.671875 39.007812 64.761719 39.121094 64.828125 39.265625 C 64.890625 39.40625 64.925781 39.570312 64.925781 39.753906 L 64.925781 43.085938 C 64.925781 43.460938 64.800781 43.746094 64.550781 43.933594 C 64.429688 44.023438 64.304688 44.089844 64.175781 44.140625 C 64.046875 44.191406 63.921875 44.214844 63.800781 44.214844 L 62.285156 44.214844 C 62.164062 44.214844 62.039062 44.191406 61.914062 44.140625 C 61.785156 44.089844 61.660156 44.023438 61.542969 43.933594 C 61.421875 43.839844 61.324219 43.722656 61.261719 43.585938 C 61.195312 43.449219 61.164062 43.285156 61.164062 43.085938 L 61.164062 39.753906 C 61.164062 39.570312 61.195312 39.40625 61.261719 39.265625 C 61.324219 39.121094 61.421875 39.007812 61.542969 38.917969 L 61.53125 38.917969 C 61.652344 38.839844 61.777344 38.773438 61.910156 38.722656 C 62.039062 38.671875 62.164062 38.644531 62.285156 38.644531 Z M 63.628906 43.503906 C 63.800781 43.503906 63.921875 43.457031 63.992188 43.359375 C 64.0625 43.261719 64.097656 43.152344 64.097656 43.03125 L 64.097656 39.820312 C 64.097656 39.703125 64.0625 39.597656 63.992188 39.5 C 63.921875 39.398438 63.800781 39.351562 63.628906 39.351562 L 62.460938 39.351562 C 62.289062 39.351562 62.167969 39.398438 62.097656 39.5 C 62.027344 39.597656 61.996094 39.703125 61.996094 39.820312 L 61.996094 43.03125 C 61.996094 43.152344 62.027344 43.261719 62.097656 43.359375 C 62.167969 43.457031 62.289062 43.503906 62.460938 43.503906 Z M 63.628906 43.503906 "/>
<path style=" stroke:none;fill-rule:nonzero;fill:rgb(29.019608%,58.431373%,81.176471%);fill-opacity:1;" d="M 71.398438 38.945312 C 71.398438 38.71875 71.539062 38.609375 71.8125 38.609375 C 72.085938 38.609375 72.226562 38.71875 72.226562 38.945312 L 72.226562 43.777344 C 72.226562 43.941406 72.140625 44.0625 71.964844 44.136719 L 71.972656 44.136719 C 71.898438 44.167969 71.820312 44.191406 71.734375 44.210938 C 71.652344 44.230469 71.574219 44.242188 71.492188 44.242188 C 71.429688 44.242188 71.367188 44.234375 71.300781 44.222656 C 71.238281 44.210938 71.175781 44.195312 71.117188 44.167969 C 71.0625 44.140625 71.007812 44.109375 70.960938 44.066406 C 70.910156 44.019531 70.871094 43.964844 70.84375 43.894531 L 69.332031 40.105469 L 69.144531 40.128906 L 69.144531 43.910156 C 69.144531 44.136719 69.003906 44.246094 68.726562 44.246094 C 68.449219 44.246094 68.3125 44.136719 68.3125 43.910156 L 68.3125 39.085938 C 68.3125 38.894531 68.398438 38.765625 68.5625 38.699219 C 68.71875 38.636719 68.878906 38.609375 69.050781 38.609375 C 69.171875 38.609375 69.296875 38.632812 69.417969 38.679688 C 69.542969 38.730469 69.636719 38.820312 69.699219 38.957031 L 71.207031 42.757812 L 71.398438 42.734375 Z M 71.398438 38.945312 "/>
<path style=" stroke:none;fill-rule:nonzero;fill:rgb(29.019608%,58.431373%,81.176471%);fill-opacity:1;" d="M 82.667969 41.003906 C 82.785156 41.003906 82.910156 41.03125 83.042969 41.082031 C 83.171875 41.132812 83.296875 41.203125 83.417969 41.285156 L 83.414062 41.285156 C 83.53125 41.367188 83.625 41.480469 83.691406 41.628906 C 83.757812 41.773438 83.789062 41.941406 83.789062 42.125 L 83.789062 43.085938 C 83.789062 43.460938 83.664062 43.746094 83.414062 43.933594 C 83.292969 44.023438 83.167969 44.089844 83.039062 44.140625 C 82.910156 44.191406 82.785156 44.214844 82.667969 44.214844 L 81.148438 44.214844 C 81.027344 44.214844 80.902344 44.191406 80.773438 44.140625 C 80.644531 44.089844 80.519531 44.023438 80.398438 43.933594 C 80.148438 43.746094 80.023438 43.460938 80.023438 43.085938 L 80.023438 42.621094 C 80.023438 42.402344 80.160156 42.292969 80.4375 42.292969 C 80.714844 42.292969 80.851562 42.402344 80.851562 42.621094 L 80.851562 43.03125 C 80.851562 43.152344 80.886719 43.261719 80.957031 43.359375 C 81.027344 43.457031 81.148438 43.503906 81.320312 43.503906 L 82.488281 43.503906 C 82.660156 43.503906 82.78125 43.457031 82.851562 43.359375 C 82.925781 43.261719 82.960938 43.152344 82.960938 43.03125 L 82.960938 42.183594 C 82.960938 42.066406 82.925781 41.957031 82.851562 41.855469 C 82.78125 41.753906 82.660156 41.707031 82.488281 41.707031 L 81.148438 41.707031 C 80.90625 41.707031 80.65625 41.617188 80.398438 41.4375 C 80.148438 41.242188 80.023438 40.960938 80.023438 40.589844 L 80.023438 39.753906 C 80.023438 39.570312 80.054688 39.40625 80.121094 39.265625 C 80.183594 39.121094 80.277344 39.007812 80.398438 38.917969 L 80.394531 38.917969 C 80.515625 38.839844 80.640625 38.773438 80.773438 38.722656 C 80.902344 38.671875 81.027344 38.644531 81.148438 38.644531 L 82.667969 38.644531 C 82.785156 38.644531 82.910156 38.671875 83.042969 38.722656 C 83.171875 38.773438 83.296875 38.839844 83.417969 38.917969 L 83.414062 38.917969 C 83.53125 39.007812 83.625 39.121094 83.691406 39.265625 C 83.757812 39.40625 83.789062 39.570312 83.789062 39.753906 L 83.789062 40.171875 C 83.789062 40.390625 83.648438 40.5 83.367188 40.5 C 83.097656 40.5 82.960938 40.390625 82.960938 40.171875 L 82.960938 39.820312 C 82.960938 39.703125 82.925781 39.597656 82.851562 39.5 C 82.78125 39.398438 82.660156 39.351562 82.488281 39.351562 L 81.320312 39.351562 C 81.148438 39.351562 81.027344 39.398438 80.957031 39.5 C 80.886719 39.597656 80.851562 39.703125 80.851562 39.820312 L 80.851562 40.535156 C 80.851562 40.65625 80.886719 40.765625 80.957031 40.863281 C 81.027344 40.957031 81.148438 41.003906 81.320312 41.003906 Z M 82.667969 41.003906 "/>
<path style=" stroke:none;fill-rule:nonzero;fill:rgb(29.019608%,58.431373%,81.176471%);fill-opacity:1;" d="M 87.660156 44.214844 C 87.492188 44.214844 87.378906 44.171875 87.316406 44.082031 C 87.257812 43.992188 87.226562 43.894531 87.226562 43.785156 L 87.226562 39.0625 C 87.226562 38.957031 87.257812 38.863281 87.316406 38.777344 C 87.378906 38.6875 87.492188 38.644531 87.660156 38.644531 L 90.089844 38.644531 C 90.261719 38.644531 90.351562 38.761719 90.363281 38.996094 C 90.371094 39.230469 90.28125 39.351562 90.089844 39.351562 L 88.046875 39.351562 L 88.046875 43.503906 L 90.210938 43.503906 C 90.386719 43.503906 90.472656 43.621094 90.480469 43.851562 C 90.488281 44.09375 90.398438 44.214844 90.210938 44.214844 Z M 89.832031 41.3125 C 89.832031 41.476562 89.773438 41.617188 89.660156 41.726562 C 89.542969 41.835938 89.40625 41.890625 89.246094 41.890625 C 89.085938 41.890625 88.949219 41.835938 88.839844 41.726562 C 88.726562 41.617188 88.671875 41.476562 88.671875 41.3125 C 88.671875 41.148438 88.726562 41.011719 88.839844 40.898438 C 88.949219 40.789062 89.085938 40.730469 89.246094 40.730469 C 89.40625 40.730469 89.542969 40.789062 89.660156 40.898438 C 89.773438 41.011719 89.832031 41.148438 89.832031 41.3125 Z M 89.832031 41.3125 "/>
<path style=" stroke:none;fill-rule:nonzero;fill:rgb(29.019608%,58.431373%,81.176471%);fill-opacity:1;" d="M 95.402344 39.332031 L 93.875 44.039062 L 93.875 44.03125 C 93.84375 44.105469 93.804688 44.160156 93.757812 44.207031 C 93.707031 44.25 93.648438 44.269531 93.582031 44.269531 C 93.542969 44.269531 93.507812 44.265625 93.472656 44.257812 C 93.4375 44.25 93.402344 44.242188 93.363281 44.234375 L 93.371094 44.234375 C 93.105469 44.148438 93.007812 44 93.078125 43.785156 L 94.667969 38.929688 C 94.691406 38.855469 94.734375 38.792969 94.789062 38.738281 C 94.847656 38.6875 94.914062 38.65625 94.996094 38.648438 C 95.074219 38.636719 95.148438 38.628906 95.226562 38.621094 C 95.300781 38.613281 95.359375 38.609375 95.402344 38.609375 C 95.441406 38.609375 95.5 38.613281 95.574219 38.621094 C 95.648438 38.628906 95.726562 38.636719 95.804688 38.644531 C 95.871094 38.652344 95.933594 38.6875 95.996094 38.75 C 96.058594 38.808594 96.105469 38.871094 96.140625 38.929688 C 96.402344 39.734375 96.664062 40.542969 96.929688 41.359375 C 97.199219 42.171875 97.460938 42.984375 97.722656 43.785156 C 97.785156 44 97.6875 44.148438 97.429688 44.234375 C 97.390625 44.242188 97.359375 44.25 97.328125 44.257812 C 97.296875 44.265625 97.261719 44.269531 97.222656 44.269531 C 97.160156 44.269531 97.101562 44.25 97.046875 44.207031 C 96.996094 44.160156 96.957031 44.105469 96.933594 44.03125 L 96.933594 44.039062 Z M 95.921875 42.523438 C 95.921875 42.675781 95.871094 42.800781 95.765625 42.90625 C 95.660156 43.011719 95.535156 43.0625 95.382812 43.0625 C 95.234375 43.0625 95.109375 43.011719 95.007812 42.90625 C 94.910156 42.800781 94.859375 42.675781 94.859375 42.523438 C 94.859375 42.378906 94.910156 42.25 95.007812 42.144531 C 95.109375 42.035156 95.234375 41.984375 95.382812 41.984375 C 95.535156 41.984375 95.660156 42.035156 95.765625 42.144531 C 95.871094 42.25 95.921875 42.378906 95.921875 42.523438 Z M 95.921875 42.523438 "/>
<path style=" stroke:none;fill-rule:nonzero;fill:rgb(29.019608%,58.431373%,81.176471%);fill-opacity:1;" d="M 102.65625 41.902344 L 102.121094 41.902344 C 102.039062 41.902344 101.980469 41.871094 101.933594 41.804688 C 101.890625 41.742188 101.867188 41.65625 101.867188 41.550781 C 101.867188 41.3125 101.964844 41.195312 102.160156 41.195312 L 102.976562 41.195312 C 103.148438 41.195312 103.269531 41.148438 103.339844 41.050781 C 103.410156 40.949219 103.445312 40.84375 103.445312 40.726562 L 103.445312 39.820312 C 103.445312 39.703125 103.410156 39.597656 103.339844 39.5 C 103.269531 39.398438 103.148438 39.351562 102.976562 39.351562 L 101.507812 39.351562 L 101.507812 43.917969 C 101.507812 44.144531 101.371094 44.257812 101.097656 44.257812 C 100.820312 44.257812 100.683594 44.144531 100.683594 43.917969 L 100.683594 39.0625 C 100.683594 38.898438 100.726562 38.785156 100.8125 38.730469 C 100.898438 38.671875 101.003906 38.644531 101.125 38.644531 L 103.148438 38.644531 C 103.269531 38.644531 103.394531 38.671875 103.523438 38.722656 C 103.65625 38.773438 103.785156 38.839844 103.90625 38.917969 L 103.898438 38.917969 C 104.015625 39.007812 104.109375 39.121094 104.171875 39.265625 C 104.238281 39.40625 104.273438 39.570312 104.273438 39.753906 L 104.273438 40.78125 C 104.273438 41.15625 104.148438 41.441406 103.898438 41.628906 C 103.84375 41.664062 103.789062 41.699219 103.734375 41.734375 C 103.675781 41.765625 103.617188 41.800781 103.558594 41.832031 L 104.671875 43.683594 C 104.683594 43.703125 104.695312 43.734375 104.710938 43.773438 C 104.726562 43.808594 104.734375 43.839844 104.734375 43.863281 C 104.734375 43.976562 104.65625 44.082031 104.496094 44.183594 L 104.496094 44.179688 C 104.386719 44.242188 104.296875 44.273438 104.222656 44.273438 C 104.117188 44.273438 104.03125 44.222656 103.964844 44.113281 L 103.972656 44.125 Z M 102.65625 41.902344 "/>
<path style=" stroke:none;fill-rule:nonzero;fill:rgb(29.019608%,58.431373%,81.176471%);fill-opacity:1;" d="M 111.472656 43.085938 C 111.472656 43.460938 111.347656 43.746094 111.097656 43.933594 C 110.976562 44.023438 110.851562 44.089844 110.722656 44.140625 C 110.59375 44.191406 110.46875 44.214844 110.347656 44.214844 L 108.832031 44.214844 C 108.710938 44.214844 108.585938 44.191406 108.460938 44.140625 C 108.332031 44.089844 108.207031 44.023438 108.089844 43.933594 C 107.96875 43.839844 107.871094 43.722656 107.808594 43.585938 C 107.742188 43.449219 107.710938 43.285156 107.710938 43.085938 L 107.710938 39.753906 C 107.710938 39.570312 107.742188 39.40625 107.808594 39.265625 C 107.871094 39.121094 107.96875 39.007812 108.089844 38.917969 L 108.078125 38.917969 C 108.199219 38.839844 108.324219 38.773438 108.457031 38.722656 C 108.585938 38.671875 108.710938 38.644531 108.832031 38.644531 L 110.347656 38.644531 C 110.46875 38.644531 110.59375 38.671875 110.726562 38.722656 C 110.859375 38.773438 110.984375 38.839844 111.105469 38.917969 L 111.097656 38.917969 C 111.21875 39.007812 111.308594 39.121094 111.375 39.265625 C 111.4375 39.40625 111.472656 39.570312 111.472656 39.753906 L 111.472656 40.238281 C 111.472656 40.464844 111.335938 40.574219 111.054688 40.574219 C 110.78125 40.574219 110.644531 40.464844 110.644531 40.238281 L 110.644531 39.820312 C 110.644531 39.703125 110.609375 39.597656 110.539062 39.5 C 110.46875 39.398438 110.347656 39.351562 110.175781 39.351562 L 109.007812 39.351562 C 108.835938 39.351562 108.714844 39.398438 108.644531 39.5 C 108.574219 39.597656 108.542969 39.703125 108.542969 39.820312 L 108.542969 43.03125 C 108.542969 43.152344 108.574219 43.261719 108.644531 43.359375 C 108.714844 43.457031 108.835938 43.503906 109.007812 43.503906 L 110.175781 43.503906 C 110.347656 43.503906 110.46875 43.457031 110.539062 43.359375 C 110.609375 43.261719 110.644531 43.152344 110.644531 43.03125 L 110.644531 42.621094 C 110.644531 42.402344 110.78125 42.292969 111.054688 42.292969 C 111.335938 42.292969 111.472656 42.402344 111.472656 42.621094 Z M 111.472656 43.085938 "/>
<path style=" stroke:none;fill-rule:nonzero;fill:rgb(29.019608%,58.431373%,81.176471%);fill-opacity:1;" d="M 117.769531 38.945312 C 117.769531 38.71875 117.90625 38.609375 118.175781 38.609375 C 118.457031 38.609375 118.597656 38.71875 118.597656 38.945312 L 118.597656 43.910156 C 118.597656 44.136719 118.457031 44.246094 118.175781 44.246094 C 117.90625 44.246094 117.769531 44.136719 117.769531 43.910156 Z M 115.648438 43.910156 C 115.648438 44.136719 115.507812 44.246094 115.230469 44.246094 C 114.957031 44.246094 114.820312 44.136719 114.820312 43.910156 L 114.820312 38.945312 C 114.820312 38.71875 114.957031 38.609375 115.230469 38.609375 C 115.507812 38.609375 115.648438 38.71875 115.648438 38.945312 Z M 117.28125 41.3125 C 117.28125 41.476562 117.222656 41.617188 117.113281 41.726562 C 117 41.835938 116.863281 41.890625 116.699219 41.890625 C 116.542969 41.890625 116.40625 41.835938 116.296875 41.726562 C 116.183594 41.617188 116.128906 41.476562 116.128906 41.3125 C 116.128906 41.148438 116.183594 41.011719 116.296875 40.898438 C 116.40625 40.789062 116.542969 40.730469 116.699219 40.730469 C 116.863281 40.730469 117 40.789062 117.113281 40.898438 C 117.222656 41.011719 117.28125 41.148438 117.28125 41.3125 Z M 117.28125 41.3125 "/>
</g>
</svg>
